<svg width="20" height="19" viewBox="0 0 20 19" fill="none" xmlns="http://www.w3.org/2000/svg">
<path d="M19.0256 17.05L15.3151 13.35C16.3179 12.05 17.0199 10.35 17.0199 8.44995C17.0199 4.04995 13.4097 0.449951 8.99719 0.449951C4.5847 0.449951 0.974487 4.14995 0.974487 8.54995C0.974487 12.95 4.5847 16.55 8.99719 16.55C10.8023 16.55 12.5071 15.95 13.9111 14.85L17.6216 18.55L19.0256 17.05ZM8.99719 14.55C5.68783 14.55 2.98016 11.85 2.98016 8.54995C2.98016 5.24995 5.68783 2.54995 8.99719 2.54995C12.3066 2.54995 15.0142 5.24995 15.0142 8.54995C15.0142 11.85 12.3066 14.55 8.99719 14.55Z" fill="black"/>
</svg>
